<?xml version="1.0" encoding="UTF-8" standalone="no"?>
<!DOCTYPE svg PUBLIC "-//W3C//DTD SVG 1.1//EN"
 "http://www.w3.org/Graphics/SVG/1.1/DTD/svg11.dtd">
<!-- Generated by graphviz version 2.38.0 (20140413.2041)
 -->
<!-- Title: %3 Pages: 1 -->
<svg width="643pt" height="764pt"
 viewBox="0.00 0.00 643.44 764.00" xmlns="http://www.w3.org/2000/svg" xmlns:xlink="http://www.w3.org/1999/xlink">
<g id="graph0" class="graph" transform="scale(1 1) rotate(0) translate(4 760)">
<title>%3</title>
<polygon fill="white" stroke="none" points="-4,4 -4,-760 639.445,-760 639.445,4 -4,4"/>
<!-- 0 -->
<g id="node1" class="node"><title>0</title>
<ellipse fill="none" stroke="black" cx="261.445" cy="-738" rx="65.7887" ry="18"/>
<text text-anchor="middle" x="261.445" y="-734.3" font-family="Times,serif" font-size="14.00">translation_unit</text>
</g>
<!-- 1 -->
<g id="node26" class="node"><title>1</title>
<ellipse fill="none" stroke="black" cx="261.445" cy="-666" rx="82.5854" ry="18"/>
<text text-anchor="middle" x="261.445" y="-662.3" font-family="Times,serif" font-size="14.00">external_declaration</text>
</g>
<!-- 0&#45;&#45;1 -->
<g id="edge25" class="edge"><title>0&#45;&#45;1</title>
<path fill="none" stroke="black" d="M261.445,-719.697C261.445,-708.846 261.445,-694.917 261.445,-684.104"/>
</g>
<!-- 4 -->
<g id="node2" class="node"><title>4</title>
<ellipse fill="none" stroke="black" cx="60.4446" cy="-450" rx="60.3893" ry="18"/>
<text text-anchor="middle" x="60.4446" y="-446.3" font-family="Times,serif" font-size="14.00">type_specifier</text>
</g>
<!-- 5 -->
<g id="node3" class="node"><title>5</title>
<ellipse fill="none" stroke="black" cx="43.4446" cy="-378" rx="27" ry="18"/>
<text text-anchor="middle" x="43.4446" y="-374.3" font-family="Times,serif" font-size="14.00">int</text>
</g>
<!-- 4&#45;&#45;5 -->
<g id="edge1" class="edge"><title>4&#45;&#45;5</title>
<path fill="none" stroke="black" d="M56.2424,-431.697C53.6073,-420.846 50.2244,-406.917 47.5985,-396.104"/>
</g>
<!-- 3 -->
<g id="node4" class="node"><title>3</title>
<ellipse fill="none" stroke="black" cx="93.4446" cy="-522" rx="87.9851" ry="18"/>
<text text-anchor="middle" x="93.4446" y="-518.3" font-family="Times,serif" font-size="14.00">declaration_specifiers</text>
</g>
<!-- 3&#45;&#45;4 -->
<g id="edge2" class="edge"><title>3&#45;&#45;4</title>
<path fill="none" stroke="black" d="M85.4563,-504.055C80.3441,-493.211 73.7309,-479.183 68.5887,-468.275"/>
</g>
<!-- 2 -->
<g id="node5" class="node"><title>2</title>
<ellipse fill="none" stroke="black" cx="261.445" cy="-594" rx="78.7863" ry="18"/>
<text text-anchor="middle" x="261.445" y="-590.3" font-family="Times,serif" font-size="14.00">function_definition</text>
</g>
<!-- 2&#45;&#45;3 -->
<g id="edge3" class="edge"><title>2&#45;&#45;3</title>
<path fill="none" stroke="black" d="M225.404,-577.983C197.348,-566.293 158.557,-550.13 130.296,-538.355"/>
</g>
<!-- 6 -->
<g id="node11" class="node"><title>6</title>
<ellipse fill="none" stroke="black" cx="261.445" cy="-522" rx="46.2923" ry="18"/>
<text text-anchor="middle" x="261.445" y="-518.3" font-family="Times,serif" font-size="14.00">declarator</text>
</g>
<!-- 2&#45;&#45;6 -->
<g id="edge9" class="edge"><title>2&#45;&#45;6</title>
<path fill="none" stroke="black" d="M261.445,-575.697C261.445,-564.846 261.445,-550.917 261.445,-540.104"/>
</g>
<!-- 12 -->
<g id="node12" class="node"><title>12</title>
<ellipse fill="none" stroke="black" cx="449.445" cy="-522" rx="87.1846" ry="18"/>
<text text-anchor="middle" x="449.445" y="-518.3" font-family="Times,serif" font-size="14.00">compound_statement</text>
</g>
<!-- 2&#45;&#45;12 -->
<g id="edge23" class="edge"><title>2&#45;&#45;12</title>
<path fill="none" stroke="black" d="M300.856,-578.326C332.619,-566.499 377.107,-549.934 409.113,-538.017"/>
</g>
<!-- 8 -->
<g id="node6" class="node"><title>8</title>
<ellipse fill="none" stroke="black" cx="158.445" cy="-378" rx="70.3881" ry="18"/>
<text text-anchor="middle" x="158.445" y="-374.3" font-family="Times,serif" font-size="14.00">direct_declarator</text>
</g>
<!-- 9 -->
<g id="node7" class="node"><title>9</title>
<ellipse fill="none" stroke="black" cx="158.445" cy="-306" rx="28.6953" ry="18"/>
<text text-anchor="middle" x="158.445" y="-302.3" font-family="Times,serif" font-size="14.00">main</text>
</g>
<!-- 8&#45;&#45;9 -->
<g id="edge4" class="edge"><title>8&#45;&#45;9</title>
<path fill="none" stroke="black" d="M158.445,-359.697C158.445,-348.846 158.445,-334.917 158.445,-324.104"/>
</g>
<!-- 7 -->
<g id="node8" class="node"><title>7</title>
<ellipse fill="none" stroke="black" cx="261.445" cy="-450" rx="70.3881" ry="18"/>
<text text-anchor="middle" x="261.445" y="-446.3" font-family="Times,serif" font-size="14.00">direct_declarator</text>
</g>
<!-- 7&#45;&#45;8 -->
<g id="edge5" class="edge"><title>7&#45;&#45;8</title>
<path fill="none" stroke="black" d="M237.814,-432.941C221.066,-421.558 198.689,-406.351 181.965,-394.985"/>
</g>
<!-- 10 -->
<g id="node9" class="node"><title>10</title>
<ellipse fill="none" stroke="black" cx="273.445" cy="-378" rx="27" ry="18"/>
<text text-anchor="middle" x="273.445" y="-374.3" font-family="Times,serif" font-size="14.00">(</text>
</g>
<!-- 7&#45;&#45;10 -->
<g id="edge6" class="edge"><title>7&#45;&#45;10</title>
<path fill="none" stroke="black" d="M264.411,-431.697C266.271,-420.846 268.659,-406.917 270.512,-396.104"/>
</g>
<!-- 11 -->
<g id="node10" class="node"><title>11</title>
<ellipse fill="none" stroke="black" cx="345.445" cy="-378" rx="27" ry="18"/>
<text text-anchor="middle" x="345.445" y="-374.3" font-family="Times,serif" font-size="14.00">)</text>
</g>
<!-- 7&#45;&#45;11 -->
<g id="edge7" class="edge"><title>7&#45;&#45;11</title>
<path fill="none" stroke="black" d="M281.351,-432.411C295.906,-420.282 315.409,-404.03 329.065,-392.65"/>
</g>
<!-- 6&#45;&#45;7 -->
<g id="edge8" class="edge"><title>6&#45;&#45;7</title>
<path fill="none" stroke="black" d="M261.445,-503.697C261.445,-492.846 261.445,-478.917 261.445,-468.104"/>
</g>
<!-- 13 -->
<g id="node13" class="node"><title>13</title>
<ellipse fill="none" stroke="black" cx="376.445" cy="-450" rx="27" ry="18"/>
<text text-anchor="middle" x="376.445" y="-446.3" font-family="Times,serif" font-size="14.00">{</text>
</g>
<!-- 12&#45;&#45;13 -->
<g id="edge10" class="edge"><title>12&#45;&#45;13</title>
<path fill="none" stroke="black" d="M431.773,-504.055C419.452,-492.24 403.189,-476.645 391.487,-465.424"/>
</g>
<!-- 14 -->
<g id="node24" class="node"><title>14</title>
<ellipse fill="none" stroke="black" cx="486.445" cy="-450" rx="64.9885" ry="18"/>
<text text-anchor="middle" x="486.445" y="-446.3" font-family="Times,serif" font-size="14.00">declaration_list</text>
</g>
<!-- 12&#45;&#45;14 -->
<g id="edge21" class="edge"><title>12&#45;&#45;14</title>
<path fill="none" stroke="black" d="M458.401,-504.055C464.133,-493.211 471.548,-479.183 477.313,-468.275"/>
</g>
<!-- 25 -->
<g id="node25" class="node"><title>25</title>
<ellipse fill="none" stroke="black" cx="596.445" cy="-450" rx="27" ry="18"/>
<text text-anchor="middle" x="596.445" y="-446.3" font-family="Times,serif" font-size="14.00">}</text>
</g>
<!-- 12&#45;&#45;25 -->
<g id="edge22" class="edge"><title>12&#45;&#45;25</title>
<path fill="none" stroke="black" d="M482.434,-505.291C510.707,-491.827 550.61,-472.826 574.938,-461.241"/>
</g>
<!-- 17 -->
<g id="node14" class="node"><title>17</title>
<ellipse fill="none" stroke="black" cx="303.445" cy="-234" rx="60.3893" ry="18"/>
<text text-anchor="middle" x="303.445" y="-230.3" font-family="Times,serif" font-size="14.00">type_specifier</text>
</g>
<!-- 18 -->
<g id="node15" class="node"><title>18</title>
<ellipse fill="none" stroke="black" cx="303.445" cy="-162" rx="27" ry="18"/>
<text text-anchor="middle" x="303.445" y="-158.3" font-family="Times,serif" font-size="14.00">int</text>
</g>
<!-- 17&#45;&#45;18 -->
<g id="edge11" class="edge"><title>17&#45;&#45;18</title>
<path fill="none" stroke="black" d="M303.445,-215.697C303.445,-204.846 303.445,-190.917 303.445,-180.104"/>
</g>
<!-- 16 -->
<g id="node16" class="node"><title>16</title>
<ellipse fill="none" stroke="black" cx="303.445" cy="-306" rx="87.9851" ry="18"/>
<text text-anchor="middle" x="303.445" y="-302.3" font-family="Times,serif" font-size="14.00">declaration_specifiers</text>
</g>
<!-- 16&#45;&#45;17 -->
<g id="edge12" class="edge"><title>16&#45;&#45;17</title>
<path fill="none" stroke="black" d="M303.445,-287.697C303.445,-276.846 303.445,-262.917 303.445,-252.104"/>
</g>
<!-- 15 -->
<g id="node17" class="node"><title>15</title>
<ellipse fill="none" stroke="black" cx="486.445" cy="-378" rx="50.0912" ry="18"/>
<text text-anchor="middle" x="486.445" y="-374.3" font-family="Times,serif" font-size="14.00">declaration</text>
</g>
<!-- 15&#45;&#45;16 -->
<g id="edge13" class="edge"><title>15&#45;&#45;16</title>
<path fill="none" stroke="black" d="M453.305,-364.324C422.302,-352.465 375.958,-334.737 343.025,-322.14"/>
</g>
<!-- 19 -->
<g id="node22" class="node"><title>19</title>
<ellipse fill="none" stroke="black" cx="486.445" cy="-306" rx="77.1866" ry="18"/>
<text text-anchor="middle" x="486.445" y="-302.3" font-family="Times,serif" font-size="14.00">init_declarator_list</text>
</g>
<!-- 15&#45;&#45;19 -->
<g id="edge18" class="edge"><title>15&#45;&#45;19</title>
<path fill="none" stroke="black" d="M486.445,-359.697C486.445,-348.846 486.445,-334.917 486.445,-324.104"/>
</g>
<!-- 24 -->
<g id="node23" class="node"><title>24</title>
<ellipse fill="none" stroke="black" cx="608.445" cy="-306" rx="27" ry="18"/>
<text text-anchor="middle" x="608.445" y="-302.3" font-family="Times,serif" font-size="14.00">;</text>
</g>
<!-- 15&#45;&#45;24 -->
<g id="edge19" class="edge"><title>15&#45;&#45;24</title>
<path fill="none" stroke="black" d="M512.02,-362.326C534.798,-349.256 567.661,-330.4 588.532,-318.425"/>
</g>
<!-- 22 -->
<g id="node18" class="node"><title>22</title>
<ellipse fill="none" stroke="black" cx="486.445" cy="-90" rx="70.3881" ry="18"/>
<text text-anchor="middle" x="486.445" y="-86.3" font-family="Times,serif" font-size="14.00">direct_declarator</text>
</g>
<!-- 23 -->
<g id="node19" class="node"><title>23</title>
<ellipse fill="none" stroke="black" cx="486.445" cy="-18" rx="27" ry="18"/>
<text text-anchor="middle" x="486.445" y="-14.3" font-family="Times,serif" font-size="14.00">b</text>
</g>
<!-- 22&#45;&#45;23 -->
<g id="edge14" class="edge"><title>22&#45;&#45;23</title>
<path fill="none" stroke="black" d="M486.445,-71.6966C486.445,-60.8463 486.445,-46.9167 486.445,-36.1043"/>
</g>
<!-- 21 -->
<g id="node20" class="node"><title>21</title>
<ellipse fill="none" stroke="black" cx="486.445" cy="-162" rx="46.2923" ry="18"/>
<text text-anchor="middle" x="486.445" y="-158.3" font-family="Times,serif" font-size="14.00">declarator</text>
</g>
<!-- 21&#45;&#45;22 -->
<g id="edge15" class="edge"><title>21&#45;&#45;22</title>
<path fill="none" stroke="black" d="M486.445,-143.697C486.445,-132.846 486.445,-118.917 486.445,-108.104"/>
</g>
<!-- 20 -->
<g id="node21" class="node"><title>20</title>
<ellipse fill="none" stroke="black" cx="486.445" cy="-234" rx="61.99" ry="18"/>
<text text-anchor="middle" x="486.445" y="-230.3" font-family="Times,serif" font-size="14.00">init_declarator</text>
</g>
<!-- 20&#45;&#45;21 -->
<g id="edge16" class="edge"><title>20&#45;&#45;21</title>
<path fill="none" stroke="black" d="M486.445,-215.697C486.445,-204.846 486.445,-190.917 486.445,-180.104"/>
</g>
<!-- 19&#45;&#45;20 -->
<g id="edge17" class="edge"><title>19&#45;&#45;20</title>
<path fill="none" stroke="black" d="M486.445,-287.697C486.445,-276.846 486.445,-262.917 486.445,-252.104"/>
</g>
<!-- 14&#45;&#45;15 -->
<g id="edge20" class="edge"><title>14&#45;&#45;15</title>
<path fill="none" stroke="black" d="M486.445,-431.697C486.445,-420.846 486.445,-406.917 486.445,-396.104"/>
</g>
<!-- 1&#45;&#45;2 -->
<g id="edge24" class="edge"><title>1&#45;&#45;2</title>
<path fill="none" stroke="black" d="M261.445,-647.697C261.445,-636.846 261.445,-622.917 261.445,-612.104"/>
</g>
</g>
</svg>
